<svg width="256" height="256" viewBox="0 0 256 256" fill="none" xmlns="http://www.w3.org/2000/svg">
<g clip-path="url(#clip0)">
<g opacity="0.5">
<path d="M225.989 170.955C219.108 189.604 208.702 205.819 195.055 219.145C179.522 234.313 159.182 246.365 134.6 254.963C133.793 255.244 132.952 255.475 132.106 255.645C130.989 255.865 129.852 255.985 128.725 256H128.504C127.303 256 126.096 255.879 124.899 255.645C124.053 255.475 123.223 255.244 122.42 254.969C97.8091 246.385 77.4438 234.338 61.895 219.17C48.2426 205.844 37.8383 189.639 30.9672 170.99C18.4731 137.084 19.184 99.7325 19.7563 69.7169L19.766 69.2559C19.8813 66.7774 19.9555 64.1739 19.9965 61.2989C20.2055 47.1836 31.4282 35.5059 45.5454 34.7188C74.979 33.0762 97.7485 23.4766 117.204 4.51369L117.374 4.35744C120.604 1.39455 124.674 -0.0585781 128.725 0.00196904C132.631 0.0527505 136.522 1.50392 139.637 4.35744L139.803 4.51369C159.262 23.4766 182.032 33.0762 211.465 34.7188C225.583 35.5059 236.805 47.1836 237.014 61.2989C237.055 64.1934 237.129 66.793 237.245 69.2559L237.251 69.4512C237.821 99.5235 238.528 136.949 225.989 170.955Z" fill="#00A8DD"/>
</g>
<g filter="url(#filter0_d)">
<path d="M141.703 138.899H114.158V169.749H141.703V138.899Z" fill="#FDCC9B"/>
<path d="M114.159 142.532C114.159 142.532 125.746 149.911 141.704 148.201V138.898H114.159V142.532Z" fill="#FCBC85"/>
<path d="M74.4401 106.397C81.8629 106.397 87.8802 99.5314 87.8802 91.0628C87.8802 82.5941 81.8629 75.7289 74.4401 75.7289C67.0173 75.7289 61 82.5941 61 91.0628C61 99.5314 67.0173 106.397 74.4401 106.397Z" fill="#FCBC85"/>
<path d="M181.421 106.397C188.844 106.397 194.861 99.5314 194.861 91.0628C194.861 82.5941 188.844 75.7289 181.421 75.7289C173.999 75.7289 167.981 82.5941 167.981 91.0628C167.981 99.5314 173.999 106.397 181.421 106.397Z" fill="#FCBC85"/>
<path d="M181.367 61.7744C181.367 39.1886 164.84 22.6609 127.93 22.6609C91.021 22.6609 74.4942 39.1877 74.4942 61.7744C74.4942 84.361 70.6383 143.857 127.93 143.857C185.223 143.857 181.367 84.361 181.367 61.7744Z" fill="#FDCC9B"/>
<path d="M101.903 93.7258C105.098 93.7258 107.688 90.8894 107.688 87.3905C107.688 83.8915 105.098 81.0551 101.903 81.0551C98.7087 81.0551 96.1189 83.8915 96.1189 87.3905C96.1189 90.8894 98.7087 93.7258 101.903 93.7258Z" fill="#3B2519"/>
<path d="M99.3814 86.3231C100.337 86.3231 101.111 85.5487 101.111 84.5933C101.111 83.638 100.337 82.8635 99.3814 82.8635C98.4261 82.8635 97.6516 83.638 97.6516 84.5933C97.6516 85.5487 98.4261 86.3231 99.3814 86.3231Z" fill="white"/>
<path d="M92.6496 71.6902C95.3849 73.0583 99.7768 67.0424 109.83 72.2759C111.663 73.2298 112.757 64.116 101.981 64.116C92.6496 64.116 90.9967 70.8647 92.6496 71.6902Z" fill="#51362A"/>
<path d="M154.672 93.7258C157.867 93.7258 160.457 90.8894 160.457 87.3905C160.457 83.8915 157.867 81.0551 154.672 81.0551C151.477 81.0551 148.888 83.8915 148.888 87.3905C148.888 90.8894 151.477 93.7258 154.672 93.7258Z" fill="#3B2519"/>
<path d="M152.151 86.3231C153.106 86.3231 153.88 85.5487 153.88 84.5933C153.88 83.638 153.106 82.8635 152.151 82.8635C151.195 82.8635 150.421 83.638 150.421 84.5933C150.421 85.5487 151.195 86.3231 152.151 86.3231Z" fill="white"/>
<path d="M163.211 71.6902C160.476 73.0583 156.084 67.0424 146.031 72.2759C144.198 73.2298 143.104 64.116 153.881 64.116C163.211 64.116 164.864 70.8647 163.211 71.6902Z" fill="#51362A"/>
<path d="M127.931 109.674C122.215 109.674 118.772 105.405 118.772 107.471C118.772 109.537 120.425 113.462 127.931 113.462C135.436 113.462 137.089 109.537 137.089 107.471C137.089 105.404 133.646 109.674 127.931 109.674Z" fill="#FCBC85"/>
<path d="M127.931 128.669C125.953 128.669 124.762 127.192 124.762 127.907C124.762 128.622 125.334 129.978 127.931 129.978C130.527 129.978 131.098 128.622 131.098 127.907C131.098 127.192 129.907 128.669 127.931 128.669Z" fill="#FCBC85"/>
<path d="M127.931 123.405C118.871 123.405 113.413 119.716 113.413 120.651C113.413 121.586 116.033 125.265 127.931 125.265C139.829 125.265 142.449 121.586 142.449 120.651C142.448 119.716 136.99 123.405 127.931 123.405Z" fill="#F7945E"/>
<path d="M127.931 151.294V186H61C61 171.952 96.2546 151.294 127.931 151.294Z" fill="white"/>
<path d="M127.931 151.294V186L180.5 178.5C180.5 164.452 159.607 151.294 127.931 151.294Z" fill="white"/>
<path d="M127.931 151.294C121.193 151.294 114.295 152.235 107.607 153.842C107.652 153.901 115.025 163.413 127.931 163.413C139.882 163.413 147.827 155.268 148.979 154.015C142.065 152.299 134.912 151.294 127.931 151.294Z" fill="#C0C0C0"/>
<path d="M114.158 152.495C114.158 152.495 118.186 157.491 127.93 157.491C137.673 157.491 141.703 152.495 141.703 152.495C141.703 152.495 127.414 147.293 114.158 152.495Z" fill="#FDCC9B"/>
<path d="M171.863 17.8417C171.863 17.8417 152.032 -7.36122 110.813 2.1414C69.5945 11.6431 66.506 36.4337 67.7457 60.5524C68.9855 84.6721 72.2904 98.8215 76.1998 97.073C80.1092 95.3235 78.0748 79.4031 78.4881 75.7289C78.9013 72.0547 82.6195 55.4389 107.688 57.9184C132.756 60.3978 153.881 51.3075 153.881 51.3075C153.881 51.3075 162.385 62.0564 167.981 64.116C179.164 68.2306 175.496 95.6665 179.878 95.6665C184.259 95.6665 205.743 32.3022 171.863 17.8417Z" fill="#51362A"/>
</g>
<path d="M230.744 203.043L212.769 203.043C212.769 210.455 206.763 216.461 199.351 216.461C191.942 216.461 185.933 210.455 185.934 203.043L6.20288 203.043L39.7707 236.187L69.7029 218.5L86.2029 236.181L106.634 224.245L118.57 236.181L133.015 221.736L142.627 221.736C144.917 226.876 148.162 231.606 152.153 235.6C160.85 244.293 172.41 249.084 184.706 249.081C210.09 249.08 230.743 228.43 230.744 203.043Z" fill="#ECD03C"/>
<path d="M199.351 189.626C206.763 189.626 212.769 195.635 212.768 203.043L230.743 203.043C230.743 190.747 225.953 179.187 217.259 170.49C208.563 161.794 197.003 157.006 184.703 157.006C166.334 157.006 149.941 167.827 142.621 184.353L24.9566 184.353L6.2029 203.028L37.7561 203.043L185.933 203.043C185.934 195.634 191.942 189.626 199.351 189.626Z" fill="#E5F248"/>
</g>
<defs>
<filter id="filter0_d" x="61" y="0" width="133.861" height="201" filterUnits="userSpaceOnUse" color-interpolation-filters="sRGB">
<feFlood flood-opacity="0" result="BackgroundImageFix"/>
<feColorMatrix in="SourceAlpha" type="matrix" values="0 0 0 0 0 0 0 0 0 0 0 0 0 0 0 0 0 0 127 0"/>
<feOffset dy="15"/>
<feColorMatrix type="matrix" values="0 0 0 0 0 0 0 0 0 0 0 0 0 0 0 0 0 0 0.25 0"/>
<feBlend mode="normal" in2="BackgroundImageFix" result="effect1_dropShadow"/>
<feBlend mode="normal" in="SourceGraphic" in2="effect1_dropShadow" result="shape"/>
</filter>
<clipPath id="clip0">
<rect width="256" height="256" fill="white"/>
</clipPath>
</defs>
</svg>
