<svg width="256" height="256" viewBox="0 0 256 256" fill="none" xmlns="http://www.w3.org/2000/svg">
<path d="M219.517 246H146.276L134.069 83.2413H231.724L219.517 246Z" fill="#F05D46"/>
<path d="M121.862 62.8965H243.931V83.2414H121.862V62.8965Z" fill="#DEDEDE"/>
<path d="M174.759 10H191.035V62.8966H174.759V10Z" fill="#F05D46"/>
<path d="M151.515 116.063L159.635 115.525L161.185 138.923L153.065 139.462L151.515 116.063Z" fill="#FF8B78"/>
<path d="M150.355 99.8053L158.471 99.2252L159.053 107.363L150.937 107.943L150.355 99.8053Z" fill="#FF8B78"/>
<path d="M230.808 95.4482L231.724 83.2413H134.069L134.985 95.4482H230.808Z" fill="#D64D37"/>
<path d="M191.034 229.724V213.448H174.758C183.023 213.399 189.939 207.16 190.837 198.943C191.738 190.725 186.333 183.14 178.273 181.304L178.827 180.897H191.034C191.02 150.644 167.344 125.687 137.132 124.086L146.276 246H174.758C183.747 246 191.034 238.712 191.034 229.724V229.724Z" fill="#D64D37"/>
<path d="M12 213.448H174.759V229.724C174.759 238.712 167.471 246 158.483 246H28.2759C19.2876 246 12 238.712 12 229.724V213.448Z" fill="#F09E3E"/>
<path d="M134.069 213.448V229.724C134.069 238.712 126.782 246 117.793 246H158.483C167.471 246 174.759 238.712 174.759 229.724V213.448H134.069Z" fill="#F09032"/>
<path d="M68.9655 123.931H117.793C149.254 123.931 174.759 149.436 174.759 180.897H12C12 149.436 37.5045 123.931 68.9655 123.931Z" fill="#F09E3E"/>
<path d="M117.793 123.931H77.1035C108.564 123.931 134.069 149.436 134.069 180.897H174.759C174.759 149.436 149.254 123.931 117.793 123.931Z" fill="#F09032"/>
<path d="M28.2759 180.896H158.483C167.471 180.896 174.759 188.184 174.759 197.172C174.759 206.161 167.471 213.448 158.483 213.448H28.2759C19.2876 213.448 12 206.161 12 197.172C12 188.184 19.2876 180.896 28.2759 180.896Z" fill="#8C563B"/>
<path d="M172.5 189.034C169.619 184.012 164.275 180.908 158.483 180.896H28.2761C22.4846 180.908 17.1401 184.012 14.2593 189.034H172.5Z" fill="#874E35"/>
<path d="M68.9656 180.896L117.793 213.448L162.552 180.896H68.9656Z" fill="#FFCC33"/>
<path d="M101.517 152.414H109.655V160.552H101.517V152.414Z" fill="#C96E23"/>
<path d="M77.1033 152.414H85.2412V160.552H77.1033V152.414Z" fill="#C96E23"/>
<path d="M52.6897 152.414H60.8276V160.552H52.6897V152.414Z" fill="#C96E23"/>
<path d="M113.724 136.138H121.862V144.276H113.724V136.138Z" fill="#C96E23"/>
<path d="M89.3101 136.138H97.448V144.276H89.3101V136.138Z" fill="#C96E23"/>
<path d="M64.8965 136.138H73.0344V144.276H64.8965V136.138Z" fill="#C96E23"/>
<path d="M125.931 152.414H134.069V160.552H125.931V152.414Z" fill="#C96E23"/>
<path d="M150.663 189.543L162.552 180.896H68.9656L81.9374 189.543H150.663Z" fill="#FFB60C"/>
</svg>
