<svg width="256" height="256" viewBox="0 0 256 256" fill="none" xmlns="http://www.w3.org/2000/svg">
<g clip-path="url(#clip0)">
<path d="M78.4 90.6665H5.3335V235.733H78.4V90.6665Z" fill="#A1C8C3"/>
<path d="M78.4 90.6665H5.3335V97.6H78.4V90.6665Z" fill="#99AFAB"/>
<path d="M83.7335 73.6H0V91.2H83.7335V73.6Z" fill="#A1C8C3"/>
<path d="M250.667 122.667H177.6V235.733H250.667V122.667Z" fill="#DF6936"/>
<path d="M250.667 122.667H177.6V129.6H250.667V122.667Z" fill="#CB512B"/>
<path d="M256 105.6H172.267V123.2H256V105.6Z" fill="#DF6936"/>
<path d="M46.4 142.4C48 140.266 48.5335 138.666 48.5335 136.533C48.5335 134.4 48 133.333 46.9335 131.733C45.867 130.667 44.267 129.6 42.1335 129.6C38.4 129.6 35.2 132.266 32 137.066L21.3335 131.733C24 127.466 26.6665 124.8 29.8665 122.666C33.0665 120.533 36.8 119.466 42.133 119.466C46.933 119.466 51.1995 121.066 54.933 124.266C58.6665 127.466 60.2665 131.733 60.2665 137.066C60.2665 139.733 59.733 142.933 58.133 145.6C56.533 148.266 53.8665 151.466 50.133 155.733L40 166.4H62.4V177.6H22.4V168L38.9335 150.933C42.1335 147.2 44.8 144.533 46.4 142.4Z" fill="white"/>
<path d="M197.334 161.6V150.934H232V160L220.267 173.334C224.533 173.867 228.267 176 230.933 179.2C233.6 182.4 234.667 185.6 234.667 189.867C234.667 195.733 232.533 200.533 228.8 203.733C224.534 206.933 219.734 208.533 213.334 208.533C206.934 208.533 200.534 206.4 194.134 202.133L199.467 192C204.8 195.734 209.6 197.867 213.867 197.867C216.533 197.867 218.667 197.333 220.267 196.267C221.867 195.2 222.933 193.067 222.933 190.933C222.933 188.8 221.867 186.667 220.267 185.6C218.133 184 216 183.466 212.267 183.466C210.667 183.466 208 184 204.8 185.066V176L215.467 163.2H197.333V161.6H197.334Z" fill="white"/>
<path d="M164.8 37.3335H91.7334V235.734H164.8V37.3335Z" fill="#F5C549"/>
<path d="M164.8 37.3335H91.7334V44.267H164.8V37.3335Z" fill="#E1A43F"/>
<path d="M169.6 20.2665H85.8665V37.8665H169.6V20.2665Z" fill="#F5C549"/>
<path d="M116.8 65.6H139.734V122.134H127.467V76.267H116.8V65.6Z" fill="white"/>
<g clip-path="url(#clip1)">
<path d="M39.1588 29.8175L27.719 35.0795L17.623 27.5539C16.9161 27.027 15.9217 27.6011 16.0247 28.4767L17.494 40.9828L7.21704 48.2591C6.49739 48.7685 6.73617 49.8916 7.60073 50.0644L19.9487 52.5315L23.6931 64.554C23.9553 65.3958 25.0972 65.5158 25.5287 64.7469L31.6908 53.7656L44.2819 53.9197C45.1636 53.9305 45.6305 52.8816 45.0326 52.2336L36.4929 42.9797L40.5304 31.0524C40.8131 30.2173 39.9598 29.449 39.1588 29.8175Z" fill="#FFDC64"/>
<path d="M5.52419 34.0794C6.52166 34.5287 9.99049 36.9286 11.9948 38.3373C12.3099 38.5587 12.0881 39.0511 11.7134 38.9618C9.33037 38.3943 5.23428 37.3869 4.23677 36.9375C3.44752 36.5821 3.09587 35.6541 3.45142 34.8648C3.80688 34.0755 4.73494 33.7239 5.52419 34.0794Z" fill="#FFF082"/>
<path d="M27.7253 21.2616C27.6156 22.3501 27.9596 26.5541 28.1774 28.9942C28.2116 29.3778 28.7489 29.432 28.859 29.0628C29.559 26.7153 30.7345 22.6642 30.8442 21.5757C30.931 20.7145 30.3031 19.9459 29.4418 19.8592C28.5806 19.7724 27.8121 20.4004 27.7253 21.2616Z" fill="#FFF082"/>
<path d="M49.49 38.7583C48.4196 38.9846 44.5188 40.5897 42.2603 41.5386C41.9053 41.6877 42.017 42.2161 42.402 42.2088C44.8513 42.1625 49.068 42.0516 50.1383 41.8253C50.9852 41.6463 51.5266 40.8146 51.3475 39.9676C51.1685 39.1207 50.3368 38.5793 49.49 38.7583Z" fill="#FFF082"/>
<path d="M9.79437 61.6766C10.5255 60.8628 13.866 58.2871 15.8169 56.8057C16.1236 56.5728 16.5253 56.9338 16.3266 57.2635C15.0618 59.3615 12.8574 62.9578 12.1263 63.7715C11.5478 64.4155 10.5568 64.4685 9.91286 63.8899C9.2689 63.3114 9.21589 62.3205 9.79437 61.6766Z" fill="#FFF082"/>
<path d="M37.1708 66.2961C36.6238 65.3487 35.2109 61.3742 34.4074 59.06C34.2811 58.6963 34.7488 58.4262 35.0007 58.7175C36.6031 60.5705 39.3386 63.7813 39.8856 64.7287C40.3184 65.4784 40.0615 66.4369 39.3119 66.8697C38.5622 67.3027 37.6036 67.0457 37.1708 66.2961Z" fill="#FFF082"/>
<path d="M21.2942 30.2906L17.6229 27.554C16.916 27.0271 15.9216 27.6011 16.0246 28.4768L17.4939 40.9828L7.21704 48.2591C6.49739 48.7685 6.73617 49.8916 7.60073 50.0644L19.9487 52.5315L23.6931 64.554C23.9553 65.3958 25.0972 65.5158 25.5287 64.7469L26.3488 63.2854C20.7484 48.8605 20.8872 35.8179 21.2942 30.2906Z" fill="#FFC850"/>
</g>
<g clip-path="url(#clip2)">
<path d="M110.318 102.204L87.4382 112.728L67.2462 97.6771C65.8324 96.6232 63.8437 97.7714 64.0496 99.5227L66.9882 124.535L46.4343 139.087C44.995 140.106 45.4726 142.352 47.2017 142.698L71.8977 147.632L79.3865 171.677C79.9108 173.361 82.1947 173.601 83.0576 172.063L95.3818 150.101L120.564 150.409C122.327 150.43 123.261 148.333 122.065 147.036L104.986 128.529L113.061 104.674C113.626 103.004 111.92 101.467 110.318 102.204Z" fill="#FFDC64"/>
<path d="M43.0484 110.728C45.0433 111.627 51.981 116.426 55.9895 119.244C56.6198 119.687 56.1762 120.671 55.4269 120.493C50.6607 119.358 42.4686 117.343 40.4735 116.444C38.895 115.733 38.1917 113.877 38.9028 112.299C39.6138 110.72 41.4699 110.017 43.0484 110.728Z" fill="#FFF082"/>
<path d="M87.4508 85.0925C87.2315 87.2695 87.9195 95.6776 88.355 100.558C88.4234 101.325 89.4981 101.433 89.7182 100.695C91.1183 95.9999 93.4692 87.8978 93.6886 85.7208C93.8622 83.9983 92.6065 82.4612 90.8838 82.2877C89.1613 82.1142 87.6244 83.3701 87.4508 85.0925Z" fill="#FFF082"/>
<path d="M130.98 120.086C128.84 120.539 121.038 123.749 116.521 125.647C115.811 125.945 116.034 127.002 116.804 126.987C121.703 126.894 130.136 126.672 132.277 126.22C133.971 125.862 135.053 124.199 134.695 122.505C134.337 120.811 132.674 119.728 130.98 120.086Z" fill="#FFF082"/>
<path d="M51.589 165.923C53.0512 164.295 59.7322 159.144 63.6341 156.181C64.2474 155.715 65.0509 156.437 64.6534 157.096C62.1238 161.292 57.715 168.485 56.2528 170.112C55.0958 171.4 53.1139 171.506 51.826 170.349C50.538 169.192 50.432 167.21 51.589 165.923Z" fill="#FFF082"/>
<path d="M106.342 175.162C105.248 173.267 102.422 165.318 100.815 160.689C100.563 159.962 101.498 159.422 102.002 160.004C105.207 163.71 110.678 170.132 111.772 172.027C112.637 173.526 112.124 175.443 110.624 176.309C109.125 177.175 107.208 176.661 106.342 175.162Z" fill="#FFF082"/>
<path d="M74.5887 103.15L67.2461 97.6772C65.8322 96.6233 63.8435 97.7715 64.0494 99.5228L66.9881 124.535L46.4343 139.087C44.995 140.106 45.4726 142.352 47.2017 142.698L71.8977 147.632L79.3865 171.677C79.9108 173.361 82.1947 173.601 83.0576 172.063L84.6978 169.14C73.4971 140.29 73.7746 114.205 74.5887 103.15Z" fill="#FFC850"/>
</g>
<g clip-path="url(#clip3)">
<path d="M187.119 71.7015L178.539 75.6481L170.967 70.0039C170.437 69.6087 169.691 70.0393 169.769 70.696L170.871 80.0755L163.163 85.5327C162.623 85.9148 162.802 86.7572 163.451 86.8867L172.712 88.7371L175.52 97.7539C175.717 98.3853 176.573 98.4753 176.897 97.8987L181.518 89.6627L190.962 89.7783C191.623 89.7863 191.973 88.9997 191.525 88.5137L185.12 81.5732L188.148 72.6277C188.36 72.0014 187.72 71.4252 187.119 71.7015Z" fill="#FFDC64"/>
<path d="M161.893 74.898C162.641 75.235 165.243 77.0349 166.746 78.0914C166.982 78.2575 166.816 78.6268 166.535 78.5599C164.748 78.1342 161.676 77.3787 160.928 77.0416C160.336 76.775 160.072 76.079 160.339 75.4871C160.605 74.8951 161.301 74.6314 161.893 74.898Z" fill="#FFF082"/>
<path d="M178.544 65.2847C178.462 66.101 178.72 69.2541 178.883 71.0841C178.909 71.3719 179.312 71.4125 179.394 71.1356C179.919 69.375 180.801 66.3367 180.883 65.5203C180.948 64.8743 180.477 64.2979 179.831 64.2329C179.186 64.1678 178.609 64.6388 178.544 65.2847Z" fill="#FFF082"/>
<path d="M194.868 78.4072C194.065 78.577 191.139 79.7808 189.445 80.4924C189.179 80.6043 189.263 81.0006 189.552 80.9951C191.389 80.9604 194.551 80.8772 195.354 80.7074C195.989 80.5732 196.395 79.9494 196.261 79.3142C196.126 78.679 195.503 78.273 194.868 78.4072Z" fill="#FFF082"/>
<path d="M165.096 95.5959C165.644 94.9856 168.15 93.0538 169.613 91.9428C169.843 91.7681 170.144 92.0388 169.995 92.2861C169.046 93.8596 167.393 96.5568 166.845 97.1671C166.411 97.6501 165.668 97.6899 165.185 97.2559C164.702 96.822 164.662 96.0789 165.096 95.5959Z" fill="#FFF082"/>
<path d="M185.628 99.0606C185.218 98.35 184.158 95.3692 183.556 93.6335C183.461 93.3607 183.812 93.1582 184.001 93.3767C185.202 94.7664 187.254 97.1745 187.664 97.8851C187.989 98.4473 187.796 99.1662 187.234 99.4908C186.672 99.8155 185.953 99.6228 185.628 99.0606Z" fill="#FFF082"/>
<path d="M173.721 72.0564L170.967 70.0039C170.437 69.6087 169.691 70.0393 169.769 70.696L170.871 80.0756L163.163 85.5327C162.623 85.9148 162.802 86.7572 163.451 86.8867L172.712 88.7371L175.52 97.7539C175.717 98.3853 176.573 98.4753 176.897 97.8987L177.512 96.8025C173.311 85.9838 173.416 76.2019 173.721 72.0564Z" fill="#FFC850"/>
</g>
<g clip-path="url(#clip4)">
<path d="M238.943 112.602L227.504 117.864L217.408 110.339C216.701 109.812 215.706 110.386 215.809 111.261L217.279 123.767L207.002 131.044C206.282 131.553 206.521 132.676 207.385 132.849L219.733 135.316L223.478 147.339C223.74 148.18 224.882 148.3 225.313 147.532L231.475 136.55L244.067 136.704C244.948 136.715 245.415 135.666 244.817 135.018L236.278 125.764L240.315 113.837C240.598 113.002 239.744 112.234 238.943 112.602Z" fill="#FFDC64"/>
<path d="M205.309 116.864C206.307 117.313 209.775 119.713 211.78 121.122C212.095 121.343 211.873 121.836 211.498 121.747C209.115 121.179 205.019 120.172 204.022 119.722C203.232 119.367 202.881 118.439 203.236 117.649C203.592 116.86 204.52 116.509 205.309 116.864Z" fill="#FFF082"/>
<path d="M227.51 104.046C227.401 105.135 227.745 109.339 227.962 111.779C227.997 112.162 228.534 112.217 228.644 111.848C229.344 109.5 230.519 105.449 230.629 104.36C230.716 103.499 230.088 102.731 229.227 102.644C228.365 102.557 227.597 103.185 227.51 104.046Z" fill="#FFF082"/>
<path d="M249.275 121.543C248.205 121.769 244.304 123.374 242.045 124.323C241.69 124.472 241.802 125.001 242.187 124.993C244.636 124.947 248.853 124.836 249.923 124.61C250.77 124.431 251.312 123.599 251.132 122.752C250.953 121.905 250.122 121.364 249.275 121.543Z" fill="#FFF082"/>
<path d="M209.579 144.461C210.31 143.647 213.651 141.072 215.602 139.59C215.909 139.357 216.31 139.718 216.111 140.048C214.847 142.146 212.642 145.742 211.911 146.556C211.333 147.2 210.342 147.253 209.698 146.675C209.054 146.096 209.001 145.105 209.579 144.461Z" fill="#FFF082"/>
<path d="M236.956 149.081C236.409 148.133 234.996 144.159 234.193 141.845C234.066 141.481 234.534 141.211 234.786 141.502C236.388 143.355 239.124 146.566 239.671 147.513C240.104 148.263 239.847 149.222 239.097 149.654C238.347 150.087 237.389 149.83 236.956 149.081Z" fill="#FFF082"/>
<path d="M221.079 113.075L217.408 110.339C216.701 109.812 215.706 110.386 215.809 111.261L217.279 123.767L207.002 131.044C206.282 131.553 206.521 132.676 207.385 132.849L219.733 135.316L223.478 147.339C223.74 148.18 224.882 148.3 225.313 147.532L226.133 146.07C220.533 131.645 220.672 118.603 221.079 113.075Z" fill="#FFC850"/>
</g>
<g clip-path="url(#clip5)">
<path d="M224.943 28.6021L213.504 33.8641L203.408 26.3385C202.701 25.8116 201.706 26.3857 201.809 27.2613L203.279 39.7674L193.002 47.0437C192.282 47.5531 192.521 48.6762 193.385 48.849L205.733 51.3161L209.478 63.3386C209.74 64.1804 210.882 64.3004 211.313 63.5315L217.475 52.5502L230.067 52.7043C230.948 52.7151 231.415 51.6662 230.817 51.0182L222.278 41.7643L226.315 29.837C226.598 29.0019 225.744 28.2336 224.943 28.6021Z" fill="#FFDC64"/>
<path d="M191.309 32.8641C192.307 33.3134 195.775 35.7133 197.78 37.1219C198.095 37.3434 197.873 37.8358 197.498 37.7465C195.115 37.179 191.019 36.1716 190.022 35.7222C189.232 35.3667 188.881 34.4387 189.236 33.6494C189.592 32.8602 190.52 32.5086 191.309 32.8641Z" fill="#FFF082"/>
<path d="M213.51 20.0463C213.401 21.1347 213.745 25.3388 213.962 27.7789C213.997 28.1625 214.534 28.2166 214.644 27.8475C215.344 25.5 216.519 21.4489 216.629 20.3604C216.716 19.4991 216.088 18.7306 215.227 18.6439C214.365 18.5571 213.597 19.185 213.51 20.0463Z" fill="#FFF082"/>
<path d="M235.275 37.543C234.205 37.7693 230.304 39.3744 228.045 40.3233C227.69 40.4724 227.802 41.0008 228.187 40.9935C230.636 40.9472 234.853 40.8362 235.923 40.6099C236.77 40.4309 237.312 39.5993 237.132 38.7523C236.953 37.9053 236.122 37.364 235.275 37.543Z" fill="#FFF082"/>
<path d="M195.579 60.4613C196.31 59.6475 199.651 57.0718 201.602 55.5904C201.909 55.3575 202.31 55.7184 202.111 56.0482C200.847 58.1462 198.642 61.7424 197.911 62.5562C197.333 63.2001 196.342 63.2532 195.698 62.6746C195.054 62.096 195.001 61.1052 195.579 60.4613Z" fill="#FFF082"/>
<path d="M222.956 65.0808C222.409 64.1334 220.996 60.159 220.193 57.8448C220.066 57.481 220.534 57.211 220.786 57.5022C222.388 59.3552 225.124 62.5661 225.671 63.5135C226.104 64.2631 225.847 65.2217 225.097 65.6545C224.347 66.0874 223.389 65.8305 222.956 65.0808Z" fill="#FFF082"/>
<path d="M207.079 29.0752L203.408 26.3386C202.701 25.8117 201.706 26.3857 201.809 27.2614L203.279 39.7674L193.002 47.0437C192.282 47.5531 192.521 48.6762 193.385 48.849L205.733 51.3161L209.478 63.3386C209.74 64.1805 210.882 64.3004 211.313 63.5315L212.133 62.07C206.533 47.6451 206.672 34.6025 207.079 29.0752Z" fill="#FFC850"/>
</g>
<g clip-path="url(#clip6)">
<path d="M44.1192 189.702L35.5393 193.648L27.9674 188.004C27.4372 187.609 26.6914 188.039 26.7686 188.696L27.8706 198.076L20.1629 203.533C19.6232 203.915 19.8022 204.757 20.4507 204.887L29.7117 206.737L32.52 215.754C32.7166 216.385 33.573 216.475 33.8966 215.899L38.5182 207.663L47.9616 207.778C48.6228 207.786 48.973 207 48.5246 206.514L42.1198 199.573L45.1479 190.628C45.3599 190.001 44.72 189.425 44.1192 189.702Z" fill="#FFDC64"/>
<path d="M18.8931 192.898C19.6412 193.235 22.2429 195.035 23.7461 196.091C23.9824 196.257 23.8161 196.627 23.5351 196.56C21.7478 196.134 18.6757 195.379 17.9276 195.042C17.3356 194.775 17.0719 194.079 17.3386 193.487C17.6052 192.895 18.3012 192.631 18.8931 192.898Z" fill="#FFF082"/>
<path d="M35.5441 183.285C35.4618 184.101 35.7198 187.254 35.8832 189.084C35.9088 189.372 36.3118 189.412 36.3943 189.136C36.9194 187.375 37.801 184.337 37.8833 183.52C37.9484 182.874 37.4775 182.298 36.8315 182.233C36.1855 182.168 35.6092 182.639 35.5441 183.285Z" fill="#FFF082"/>
<path d="M51.8676 196.407C51.0649 196.577 48.1392 197.781 46.4454 198.492C46.1791 198.604 46.2629 199.001 46.5516 198.995C48.3886 198.96 51.5511 198.877 52.3538 198.707C52.989 198.573 53.3951 197.949 53.2608 197.314C53.1265 196.679 52.5028 196.273 51.8676 196.407Z" fill="#FFF082"/>
<path d="M22.0959 213.596C22.6442 212.986 25.1496 211.054 26.6128 209.943C26.8428 209.768 27.1441 210.039 26.995 210.286C26.0464 211.86 24.3932 214.557 23.8448 215.167C23.411 215.65 22.6677 215.69 22.1848 215.256C21.7018 214.822 21.662 214.079 22.0959 213.596Z" fill="#FFF082"/>
<path d="M42.6283 217.061C42.2181 216.35 41.1584 213.369 40.5557 211.634C40.461 211.361 40.8118 211.158 41.0007 211.377C42.2025 212.766 44.2541 215.175 44.6644 215.885C44.989 216.447 44.7963 217.166 44.2341 217.491C43.6719 217.816 42.9529 217.623 42.6283 217.061Z" fill="#FFF082"/>
<path d="M30.7208 190.056L27.9673 188.004C27.4371 187.609 26.6914 188.039 26.7686 188.696L27.8706 198.076L20.1629 203.533C19.6232 203.915 19.8022 204.757 20.4507 204.887L29.7117 206.737L32.52 215.754C32.7166 216.385 33.573 216.475 33.8966 215.899L34.5117 214.803C30.3115 203.984 30.4155 194.202 30.7208 190.056Z" fill="#FFC850"/>
</g>
</g>
<defs>
<clipPath id="clip0">
<rect width="256" height="256" fill="white"/>
</clipPath>
<clipPath id="clip1">
<rect width="48" height="48" fill="white" transform="translate(-5 38.2154) rotate(-30)"/>
</clipPath>
<clipPath id="clip2">
<rect width="96" height="96" fill="white" transform="translate(22 119) rotate(-30)"/>
</clipPath>
<clipPath id="clip3">
<rect width="36" height="36" fill="white" transform="translate(154 78) rotate(-30)"/>
</clipPath>
<clipPath id="clip4">
<rect width="48" height="48" fill="white" transform="translate(194.785 121) rotate(-30)"/>
</clipPath>
<clipPath id="clip5">
<rect width="48" height="48" fill="white" transform="translate(180.785 37) rotate(-30)"/>
</clipPath>
<clipPath id="clip6">
<rect width="36" height="36" fill="white" transform="translate(11 196) rotate(-30)"/>
</clipPath>
</defs>
</svg>
