<svg width="256" height="256" viewBox="0 0 256 256" fill="none" xmlns="http://www.w3.org/2000/svg">
<g clip-path="url(#clip0)">
<g clip-path="url(#clip1)">
<path d="M9.05121 217.991C22.3292 228.716 37.9254 236.916 55.385 241.594C123.925 259.959 194.802 217.696 213.692 147.198C228.41 92.2667 207.116 36.5176 164.61 5.83025L9.05121 217.991Z" fill="#5C913B"/>
<path d="M17.7136 206.177C29.5809 215.84 43.5345 223.219 59.1858 227.413C120.103 243.736 183.108 206.167 199.899 143.505C213.019 94.5375 193.954 44.8504 155.964 17.6227L17.7136 206.177Z" fill="#FFE8B6"/>
<path d="M26.3741 194.364C36.8277 202.95 49.1443 209.518 62.9802 213.226C116.295 227.511 171.421 194.641 186.114 139.809C197.634 96.8127 180.799 53.1808 147.324 29.4195L26.3741 194.364Z" fill="#DD2E44"/>
<path d="M77.8382 179.84C80.5168 182.892 81.451 186.441 79.9288 187.781C78.3998 189.119 75.0001 187.737 72.3211 184.686C69.6425 181.635 68.7083 178.085 70.2378 176.747C71.7595 175.407 75.1597 176.789 77.8382 179.84Z" fill="black"/>
<path d="M96.3317 139.191C99.0102 142.242 99.9445 145.791 98.4222 147.132C96.8932 148.47 93.4936 147.088 90.8145 144.037C88.1355 140.985 87.2018 137.436 88.7312 136.098C90.254 134.758 93.6536 136.14 96.3317 139.191Z" fill="black"/>
<path d="M139.161 112.039C143.163 112.732 146.115 114.906 145.772 116.897C145.425 118.901 141.913 119.952 137.91 119.259C133.906 118.574 130.956 116.393 131.307 114.404C131.639 112.395 135.151 111.345 139.161 112.039Z" fill="black"/>
<path d="M107.876 172.065C111.878 172.757 114.83 174.931 114.487 176.922C114.139 178.927 110.628 179.977 106.625 179.285C102.623 178.592 99.6708 176.418 100.021 174.429C100.354 172.42 103.866 171.37 107.876 172.065Z" fill="black"/>
<path d="M153.2 154.555C155.695 157.755 156.42 161.346 154.823 162.599C153.225 163.851 149.913 162.256 147.419 159.057C144.926 155.85 144.201 152.258 145.794 151.021C147.393 149.761 150.709 151.342 153.2 154.555Z" fill="black"/>
<path d="M171.689 98.429C175.619 97.4069 179.207 98.1711 179.71 100.122C180.221 102.098 177.454 104.512 173.52 105.525C169.595 106.556 166.016 105.786 165.501 103.824C164.98 101.853 167.752 99.4489 171.689 98.429Z" fill="black"/>
<path d="M122.696 138.638C126.555 137.369 130.178 137.892 130.81 139.816C131.456 141.745 128.848 144.33 124.988 145.599C121.136 146.87 117.509 146.339 116.875 144.421C116.229 142.492 118.829 139.905 122.696 138.638Z" fill="black"/>
<path d="M150.926 77.938C153.421 81.1377 154.145 84.7292 152.548 85.9814C150.95 87.2336 147.636 85.6457 145.144 82.4393C142.642 79.2378 141.924 75.6482 143.519 74.4031C145.118 73.1446 148.435 74.7242 150.926 77.938Z" fill="black"/>
</g>
<g clip-path="url(#clip2)">
<path d="M220.848 216.547L216.443 220.947L214.893 222.497L206.373 213.972C208.623 212.277 210.718 210.382 212.618 208.317L220.848 216.547Z" fill="#965959"/>
<path d="M211.324 209.684C229.507 191.501 229.507 162.02 211.324 143.837C193.141 125.654 163.66 125.654 145.477 143.837C127.294 162.02 127.294 191.5 145.477 209.684C163.66 227.867 193.141 227.867 211.324 209.684Z" fill="#4BCADB"/>
<path d="M206.375 204.735C221.825 189.285 221.825 164.236 206.375 148.786C190.925 133.336 165.876 133.336 150.426 148.786C134.976 164.236 134.977 189.285 150.426 204.735C165.876 220.185 190.926 220.185 206.375 204.735Z" fill="#44AFC7"/>
<path d="M178.411 209.597C196.547 209.597 211.248 194.895 211.248 176.76C211.248 158.625 196.547 143.923 178.411 143.923C160.276 143.923 145.574 158.625 145.574 176.76C145.574 194.895 160.276 209.597 178.411 209.597Z" fill="#E2FFFA"/>
<path d="M250.705 244.284L245.245 249.749L243.245 251.749L242.635 252.355C240.69 254.305 237.535 254.305 235.585 252.354L213.835 230.604C211.89 228.659 211.89 225.504 213.835 223.559L214.445 222.949L216.445 220.949L221.905 215.489C223.855 213.539 227.01 213.539 228.955 215.489L250.705 237.234C252.655 239.184 252.655 242.339 250.705 244.284V244.284Z" fill="#B27A73"/>
<path d="M250.705 244.284L245.245 249.749L216.445 220.949L221.905 215.489C223.855 213.539 227.01 213.539 228.955 215.489L250.705 237.234C252.655 239.184 252.655 242.339 250.705 244.284V244.284Z" fill="#A86550"/>
<path d="M211.25 176.759C211.25 194.894 196.545 209.599 178.41 209.599C177.14 209.599 175.89 209.529 174.66 209.384C191.03 207.524 203.75 193.624 203.75 176.759C203.75 159.894 191.03 145.999 174.66 144.139C175.89 143.994 177.14 143.924 178.41 143.924C196.545 143.924 211.25 158.624 211.25 176.759Z" fill="#CFE2FF"/>
<path d="M182.159 209.384C180.929 209.529 179.679 209.599 178.409 209.599C160.274 209.599 145.574 194.894 145.574 176.759C145.574 158.624 160.274 143.924 178.409 143.924C179.679 143.924 180.929 143.994 182.159 144.139C165.789 145.999 153.074 159.894 153.074 176.759C153.074 193.624 165.789 207.524 182.159 209.384Z" fill="#B5DBF1"/>
<path d="M178.408 141.921C159.199 141.921 143.571 157.548 143.571 176.758C143.571 195.967 159.199 211.595 178.408 211.595C197.617 211.595 213.245 195.967 213.245 176.758C213.245 157.548 197.617 141.921 178.408 141.921V141.921ZM178.408 207.594C161.405 207.594 147.571 193.761 147.571 176.757C147.571 159.754 161.405 145.92 178.408 145.92C195.412 145.92 209.245 159.754 209.245 176.757C209.245 193.761 195.412 207.594 178.408 207.594V207.594Z" fill="#26536D"/>
<path d="M252.116 235.819L230.367 214.07C227.764 211.467 223.602 211.359 220.862 213.733L215.363 208.234C242.147 176.836 219.748 128.19 178.408 128.19C151.628 128.19 129.84 149.977 129.84 176.758C129.84 215.966 174.148 238.964 206.162 216.59L212.084 222.512C209.708 225.253 209.815 229.414 212.42 232.018L234.169 253.767C235.531 255.129 237.319 255.81 239.108 255.81C240.896 255.81 242.685 255.129 244.047 253.767L252.117 245.698C254.84 242.974 254.84 238.543 252.116 235.819ZM178.408 221.325C153.834 221.325 133.84 201.332 133.84 176.758C133.84 152.183 153.833 132.19 178.408 132.19C202.983 132.19 222.976 152.183 222.976 176.758C222.976 201.332 202.983 221.325 178.408 221.325ZM209.374 214.145C210.509 213.203 211.6 212.211 212.644 211.172L218.016 216.543L214.894 219.665L209.374 214.145ZM249.288 242.869L241.218 250.939C240.054 252.103 238.161 252.103 236.997 250.939L215.248 229.19C214.084 228.026 214.084 226.132 215.248 224.969L223.317 216.899C223.899 216.317 224.664 216.026 225.428 216.026C226.193 216.026 226.957 216.317 227.539 216.899L249.289 238.648C250.452 239.812 250.452 241.705 249.288 242.869Z" fill="#361D05"/>
<path d="M198.057 184.356C197.143 183.738 195.9 183.98 195.281 184.893C195.255 184.932 192.627 188.773 188.359 191.733C187.452 192.363 187.226 193.609 187.855 194.517C188.244 195.077 188.867 195.377 189.501 195.377C189.894 195.377 190.291 195.262 190.638 195.021C195.549 191.615 198.476 187.311 198.598 187.129C199.215 186.214 198.972 184.973 198.057 184.356V184.356Z" fill="#26536D"/>
<path d="M182.249 194.648C181.595 194.82 180.933 194.949 180.28 195.032C179.184 195.172 178.409 196.173 178.548 197.269C178.677 198.279 179.538 199.017 180.53 199.017C180.614 199.017 180.699 199.011 180.785 199.001C181.611 198.896 182.446 198.732 183.268 198.516C184.337 198.234 184.974 197.14 184.693 196.072C184.41 195.003 183.313 194.366 182.249 194.648Z" fill="#26536D"/>
</g>
</g>
<defs>
<clipPath id="clip0">
<rect width="256" height="256" fill="white"/>
</clipPath>
<clipPath id="clip1">
<rect width="256" height="256" fill="white" transform="translate(-30.7673 218.51) rotate(-75)"/>
</clipPath>
<clipPath id="clip2">
<rect width="128" height="128" fill="white" transform="translate(128 128)"/>
</clipPath>
</defs>
</svg>
